<svg width="102" height="121" viewBox="0 0 102 121" fill="none" xmlns="http://www.w3.org/2000/svg">
<rect x="4" y="0.5" width="94" height="94" rx="16" fill="#E5EAE8"/>
<path d="M8.24219 113.758H10.3906C10.3333 114.518 10.1224 115.193 9.75781 115.781C9.39323 116.365 8.88542 116.823 8.23438 117.156C7.58333 117.49 6.79427 117.656 5.86719 117.656C5.15365 117.656 4.51042 117.531 3.9375 117.281C3.36979 117.026 2.88281 116.664 2.47656 116.195C2.07552 115.721 1.76823 115.154 1.55469 114.492C1.34115 113.826 1.23438 113.078 1.23438 112.25V111.383C1.23438 110.555 1.34375 109.807 1.5625 109.141C1.78125 108.474 2.09375 107.906 2.5 107.438C2.91146 106.964 3.40365 106.599 3.97656 106.344C4.55469 106.089 5.20052 105.961 5.91406 105.961C6.84115 105.961 7.625 106.133 8.26562 106.477C8.90625 106.815 9.40365 107.281 9.75781 107.875C10.112 108.469 10.3255 109.151 10.3984 109.922H8.25C8.20833 109.443 8.10417 109.036 7.9375 108.703C7.77604 108.37 7.53125 108.117 7.20312 107.945C6.88021 107.768 6.45052 107.68 5.91406 107.68C5.4974 107.68 5.13021 107.758 4.8125 107.914C4.5 108.07 4.23958 108.305 4.03125 108.617C3.82292 108.924 3.66667 109.31 3.5625 109.773C3.45833 110.232 3.40625 110.763 3.40625 111.367V112.25C3.40625 112.828 3.45312 113.346 3.54688 113.805C3.64062 114.263 3.78646 114.651 3.98438 114.969C4.18229 115.286 4.4375 115.529 4.75 115.695C5.0625 115.862 5.4349 115.945 5.86719 115.945C6.39323 115.945 6.82031 115.862 7.14844 115.695C7.48177 115.529 7.73438 115.284 7.90625 114.961C8.08333 114.638 8.19531 114.237 8.24219 113.758ZM16.5547 115.703V111.805C16.5547 111.518 16.5052 111.271 16.4062 111.062C16.3073 110.854 16.1562 110.693 15.9531 110.578C15.75 110.464 15.4922 110.406 15.1797 110.406C14.9036 110.406 14.6615 110.453 14.4531 110.547C14.25 110.641 14.0938 110.773 13.9844 110.945C13.875 111.112 13.8203 111.305 13.8203 111.523H11.75C11.75 111.174 11.8333 110.844 12 110.531C12.1667 110.214 12.4036 109.932 12.7109 109.688C13.0234 109.438 13.3958 109.242 13.8281 109.102C14.2656 108.961 14.7552 108.891 15.2969 108.891C15.9375 108.891 16.5078 109 17.0078 109.219C17.513 109.432 17.9089 109.755 18.1953 110.188C18.487 110.62 18.6328 111.164 18.6328 111.82V115.508C18.6328 115.93 18.6589 116.292 18.7109 116.594C18.7682 116.891 18.8516 117.148 18.9609 117.367V117.5H16.8594C16.7604 117.286 16.6849 117.016 16.6328 116.688C16.5807 116.354 16.5547 116.026 16.5547 115.703ZM16.8438 112.352L16.8594 113.578H15.5547C15.2318 113.578 14.9479 113.612 14.7031 113.68C14.4583 113.742 14.2578 113.836 14.1016 113.961C13.9453 114.081 13.8281 114.227 13.75 114.398C13.6719 114.565 13.6328 114.755 13.6328 114.969C13.6328 115.177 13.6797 115.365 13.7734 115.531C13.8724 115.698 14.013 115.831 14.1953 115.93C14.3828 116.023 14.6016 116.07 14.8516 116.07C15.2161 116.07 15.5339 115.997 15.8047 115.852C16.0755 115.701 16.2865 115.518 16.4375 115.305C16.5885 115.091 16.6693 114.888 16.6797 114.695L17.2734 115.586C17.2005 115.799 17.0911 116.026 16.9453 116.266C16.7995 116.505 16.612 116.729 16.3828 116.938C16.1536 117.146 15.8776 117.318 15.5547 117.453C15.2318 117.589 14.8568 117.656 14.4297 117.656C13.8828 117.656 13.3932 117.547 12.9609 117.328C12.5286 117.109 12.1875 116.81 11.9375 116.43C11.6875 116.049 11.5625 115.617 11.5625 115.133C11.5625 114.685 11.6458 114.289 11.8125 113.945C11.9792 113.602 12.2266 113.312 12.5547 113.078C12.8828 112.839 13.2891 112.659 13.7734 112.539C14.263 112.414 14.8229 112.352 15.4531 112.352H16.8438ZM22.5547 110.672V120.75H20.4844V109.047H22.3984L22.5547 110.672ZM27.9844 113.188V113.352C27.9844 113.966 27.9115 114.536 27.7656 115.062C27.625 115.583 27.4167 116.039 27.1406 116.43C26.8646 116.815 26.5208 117.117 26.1094 117.336C25.7031 117.549 25.2344 117.656 24.7031 117.656C24.1823 117.656 23.7292 117.557 23.3438 117.359C22.9583 117.156 22.6328 116.87 22.3672 116.5C22.1016 116.13 21.888 115.701 21.7266 115.211C21.5703 114.716 21.4531 114.177 21.375 113.594V113.07C21.4531 112.451 21.5703 111.888 21.7266 111.383C21.888 110.872 22.1016 110.432 22.3672 110.062C22.6328 109.688 22.9557 109.398 23.3359 109.195C23.7214 108.992 24.1719 108.891 24.6875 108.891C25.224 108.891 25.6953 108.992 26.1016 109.195C26.513 109.398 26.8594 109.69 27.1406 110.07C27.4219 110.451 27.6328 110.904 27.7734 111.43C27.9141 111.956 27.9844 112.542 27.9844 113.188ZM25.9141 113.352V113.188C25.9141 112.812 25.8802 112.466 25.8125 112.148C25.7448 111.826 25.6406 111.544 25.5 111.305C25.3594 111.06 25.1771 110.87 24.9531 110.734C24.7292 110.599 24.4583 110.531 24.1406 110.531C23.8229 110.531 23.5495 110.583 23.3203 110.688C23.0911 110.792 22.9036 110.94 22.7578 111.133C22.612 111.326 22.4974 111.555 22.4141 111.82C22.3359 112.081 22.2839 112.37 22.2578 112.688V113.984C22.3047 114.37 22.3958 114.716 22.5312 115.023C22.6667 115.331 22.8646 115.576 23.125 115.758C23.3906 115.94 23.7344 116.031 24.1562 116.031C24.474 116.031 24.7448 115.961 24.9688 115.82C25.1927 115.68 25.375 115.487 25.5156 115.242C25.6562 114.992 25.7578 114.706 25.8203 114.383C25.8828 114.06 25.9141 113.716 25.9141 113.352ZM31.6797 109.047V117.5H29.6094V109.047H31.6797ZM29.4688 106.836C29.4688 106.529 29.5729 106.273 29.7812 106.07C29.9948 105.867 30.2812 105.766 30.6406 105.766C31 105.766 31.2839 105.867 31.4922 106.07C31.7057 106.273 31.8125 106.529 31.8125 106.836C31.8125 107.138 31.7057 107.391 31.4922 107.594C31.2839 107.797 31 107.898 30.6406 107.898C30.2812 107.898 29.9948 107.797 29.7812 107.594C29.5729 107.391 29.4688 107.138 29.4688 106.836ZM37.6484 109.047V110.531H32.8047V109.047H37.6484ZM34.1016 106.969H36.1719V115.062C36.1719 115.312 36.2057 115.505 36.2734 115.641C36.3411 115.776 36.4427 115.867 36.5781 115.914C36.7135 115.961 36.875 115.984 37.0625 115.984C37.1979 115.984 37.3229 115.977 37.4375 115.961C37.5521 115.945 37.6484 115.93 37.7266 115.914L37.7344 117.461C37.5625 117.518 37.3672 117.565 37.1484 117.602C36.9349 117.638 36.6927 117.656 36.4219 117.656C35.9583 117.656 35.5521 117.578 35.2031 117.422C34.8542 117.26 34.5833 117.003 34.3906 116.648C34.1979 116.289 34.1016 115.815 34.1016 115.227V106.969ZM43.6797 115.703V111.805C43.6797 111.518 43.6302 111.271 43.5312 111.062C43.4323 110.854 43.2812 110.693 43.0781 110.578C42.875 110.464 42.6172 110.406 42.3047 110.406C42.0286 110.406 41.7865 110.453 41.5781 110.547C41.375 110.641 41.2188 110.773 41.1094 110.945C41 111.112 40.9453 111.305 40.9453 111.523H38.875C38.875 111.174 38.9583 110.844 39.125 110.531C39.2917 110.214 39.5286 109.932 39.8359 109.688C40.1484 109.438 40.5208 109.242 40.9531 109.102C41.3906 108.961 41.8802 108.891 42.4219 108.891C43.0625 108.891 43.6328 109 44.1328 109.219C44.638 109.432 45.0339 109.755 45.3203 110.188C45.612 110.62 45.7578 111.164 45.7578 111.82V115.508C45.7578 115.93 45.7839 116.292 45.8359 116.594C45.8932 116.891 45.9766 117.148 46.0859 117.367V117.5H43.9844C43.8854 117.286 43.8099 117.016 43.7578 116.688C43.7057 116.354 43.6797 116.026 43.6797 115.703ZM43.9688 112.352L43.9844 113.578H42.6797C42.3568 113.578 42.0729 113.612 41.8281 113.68C41.5833 113.742 41.3828 113.836 41.2266 113.961C41.0703 114.081 40.9531 114.227 40.875 114.398C40.7969 114.565 40.7578 114.755 40.7578 114.969C40.7578 115.177 40.8047 115.365 40.8984 115.531C40.9974 115.698 41.138 115.831 41.3203 115.93C41.5078 116.023 41.7266 116.07 41.9766 116.07C42.3411 116.07 42.6589 115.997 42.9297 115.852C43.2005 115.701 43.4115 115.518 43.5625 115.305C43.7135 115.091 43.7943 114.888 43.8047 114.695L44.3984 115.586C44.3255 115.799 44.2161 116.026 44.0703 116.266C43.9245 116.505 43.737 116.729 43.5078 116.938C43.2786 117.146 43.0026 117.318 42.6797 117.453C42.3568 117.589 41.9818 117.656 41.5547 117.656C41.0078 117.656 40.5182 117.547 40.0859 117.328C39.6536 117.109 39.3125 116.81 39.0625 116.43C38.8125 116.049 38.6875 115.617 38.6875 115.133C38.6875 114.685 38.7708 114.289 38.9375 113.945C39.1042 113.602 39.3516 113.312 39.6797 113.078C40.0078 112.839 40.4141 112.659 40.8984 112.539C41.388 112.414 41.9479 112.352 42.5781 112.352H43.9688ZM49.8047 105.5V117.5H47.7344V105.5H49.8047ZM64.7891 111.617V116.047C64.6224 116.26 64.3594 116.492 64 116.742C63.6458 116.992 63.1823 117.208 62.6094 117.391C62.0365 117.568 61.3333 117.656 60.5 117.656C59.776 117.656 59.1146 117.536 58.5156 117.297C57.9167 117.052 57.401 116.695 56.9688 116.227C56.5365 115.758 56.2031 115.185 55.9688 114.508C55.7344 113.831 55.6172 113.057 55.6172 112.188V111.438C55.6172 110.568 55.7266 109.794 55.9453 109.117C56.1693 108.44 56.487 107.867 56.8984 107.398C57.3151 106.93 57.8125 106.573 58.3906 106.328C58.974 106.083 59.625 105.961 60.3438 105.961C61.3073 105.961 62.099 106.12 62.7188 106.438C63.3438 106.755 63.8229 107.193 64.1562 107.75C64.4896 108.302 64.6979 108.938 64.7812 109.656H62.6875C62.6302 109.26 62.5156 108.914 62.3438 108.617C62.1719 108.315 61.9271 108.081 61.6094 107.914C61.2969 107.742 60.8906 107.656 60.3906 107.656C59.9688 107.656 59.5964 107.74 59.2734 107.906C58.9505 108.073 58.6797 108.315 58.4609 108.633C58.2422 108.951 58.0755 109.344 57.9609 109.812C57.8516 110.281 57.7969 110.818 57.7969 111.422V112.188C57.7969 112.797 57.8594 113.339 57.9844 113.812C58.1094 114.281 58.2891 114.677 58.5234 115C58.763 115.318 59.0573 115.56 59.4062 115.727C59.7604 115.888 60.1615 115.969 60.6094 115.969C61.0156 115.969 61.3516 115.935 61.6172 115.867C61.888 115.794 62.1042 115.708 62.2656 115.609C62.4271 115.51 62.5521 115.414 62.6406 115.32V113.188H60.3828V111.617H64.7891ZM66.2969 113.359V113.195C66.2969 112.576 66.3854 112.005 66.5625 111.484C66.7396 110.958 66.9974 110.503 67.3359 110.117C67.6745 109.732 68.0885 109.432 68.5781 109.219C69.0677 109 69.625 108.891 70.25 108.891C70.8854 108.891 71.4479 109 71.9375 109.219C72.4323 109.432 72.849 109.732 73.1875 110.117C73.526 110.503 73.7839 110.958 73.9609 111.484C74.138 112.005 74.2266 112.576 74.2266 113.195V113.359C74.2266 113.974 74.138 114.544 73.9609 115.07C73.7839 115.591 73.526 116.047 73.1875 116.438C72.849 116.823 72.4349 117.122 71.9453 117.336C71.4557 117.549 70.8958 117.656 70.2656 117.656C69.6406 117.656 69.0807 117.549 68.5859 117.336C68.0911 117.122 67.6745 116.823 67.3359 116.438C66.9974 116.047 66.7396 115.591 66.5625 115.07C66.3854 114.544 66.2969 113.974 66.2969 113.359ZM68.3594 113.195V113.359C68.3594 113.729 68.3958 114.076 68.4688 114.398C68.5417 114.721 68.6536 115.005 68.8047 115.25C68.9557 115.495 69.151 115.688 69.3906 115.828C69.6354 115.964 69.9271 116.031 70.2656 116.031C70.599 116.031 70.8854 115.964 71.125 115.828C71.3646 115.688 71.5599 115.495 71.7109 115.25C71.8672 115.005 71.9818 114.721 72.0547 114.398C72.1276 114.076 72.1641 113.729 72.1641 113.359V113.195C72.1641 112.831 72.1276 112.49 72.0547 112.172C71.9818 111.849 71.8672 111.565 71.7109 111.32C71.5599 111.07 71.362 110.875 71.1172 110.734C70.8776 110.589 70.5885 110.516 70.25 110.516C69.9167 110.516 69.6302 110.589 69.3906 110.734C69.151 110.875 68.9557 111.07 68.8047 111.32C68.6536 111.565 68.5417 111.849 68.4688 112.172C68.3958 112.49 68.3594 112.831 68.3594 113.195ZM75.3594 113.359V113.195C75.3594 112.576 75.4479 112.005 75.625 111.484C75.8021 110.958 76.0599 110.503 76.3984 110.117C76.737 109.732 77.151 109.432 77.6406 109.219C78.1302 109 78.6875 108.891 79.3125 108.891C79.9479 108.891 80.5104 109 81 109.219C81.4948 109.432 81.9115 109.732 82.25 110.117C82.5885 110.503 82.8464 110.958 83.0234 111.484C83.2005 112.005 83.2891 112.576 83.2891 113.195V113.359C83.2891 113.974 83.2005 114.544 83.0234 115.07C82.8464 115.591 82.5885 116.047 82.25 116.438C81.9115 116.823 81.4974 117.122 81.0078 117.336C80.5182 117.549 79.9583 117.656 79.3281 117.656C78.7031 117.656 78.1432 117.549 77.6484 117.336C77.1536 117.122 76.737 116.823 76.3984 116.438C76.0599 116.047 75.8021 115.591 75.625 115.07C75.4479 114.544 75.3594 113.974 75.3594 113.359ZM77.4219 113.195V113.359C77.4219 113.729 77.4583 114.076 77.5312 114.398C77.6042 114.721 77.7161 115.005 77.8672 115.25C78.0182 115.495 78.2135 115.688 78.4531 115.828C78.6979 115.964 78.9896 116.031 79.3281 116.031C79.6615 116.031 79.9479 115.964 80.1875 115.828C80.4271 115.688 80.6224 115.495 80.7734 115.25C80.9297 115.005 81.0443 114.721 81.1172 114.398C81.1901 114.076 81.2266 113.729 81.2266 113.359V113.195C81.2266 112.831 81.1901 112.49 81.1172 112.172C81.0443 111.849 80.9297 111.565 80.7734 111.32C80.6224 111.07 80.4245 110.875 80.1797 110.734C79.9401 110.589 79.651 110.516 79.3125 110.516C78.9792 110.516 78.6927 110.589 78.4531 110.734C78.2135 110.875 78.0182 111.07 77.8672 111.32C77.7161 111.565 77.6042 111.849 77.5312 112.172C77.4583 112.49 77.4219 112.831 77.4219 113.195ZM89.8594 115.703V105.5H91.9375V117.5H90.0625L89.8594 115.703ZM84.4297 113.375V113.211C84.4297 112.565 84.5026 111.979 84.6484 111.453C84.7995 110.922 85.0182 110.466 85.3047 110.086C85.5911 109.706 85.9375 109.411 86.3438 109.203C86.7552 108.995 87.2214 108.891 87.7422 108.891C88.2474 108.891 88.6875 108.992 89.0625 109.195C89.4427 109.398 89.7656 109.688 90.0312 110.062C90.3021 110.438 90.5182 110.883 90.6797 111.398C90.8411 111.909 90.9583 112.471 91.0312 113.086V113.531C90.9583 114.13 90.8411 114.68 90.6797 115.18C90.5182 115.68 90.3021 116.117 90.0312 116.492C89.7656 116.862 89.4427 117.148 89.0625 117.352C88.6823 117.555 88.237 117.656 87.7266 117.656C87.2109 117.656 86.7474 117.549 86.3359 117.336C85.9297 117.122 85.5833 116.823 85.2969 116.438C85.0156 116.052 84.7995 115.599 84.6484 115.078C84.5026 114.557 84.4297 113.99 84.4297 113.375ZM86.5 113.211V113.375C86.5 113.74 86.5312 114.081 86.5938 114.398C86.6562 114.716 86.7578 114.997 86.8984 115.242C87.0391 115.482 87.2188 115.669 87.4375 115.805C87.6615 115.94 87.9323 116.008 88.25 116.008C88.6562 116.008 88.9896 115.919 89.25 115.742C89.5156 115.56 89.7214 115.312 89.8672 115C90.013 114.682 90.1068 114.326 90.1484 113.93V112.703C90.1276 112.391 90.0729 112.102 89.9844 111.836C89.901 111.57 89.7812 111.341 89.625 111.148C89.474 110.956 89.2865 110.805 89.0625 110.695C88.8385 110.586 88.5729 110.531 88.2656 110.531C87.9479 110.531 87.6771 110.602 87.4531 110.742C87.2292 110.878 87.0469 111.068 86.9062 111.312C86.7656 111.557 86.6615 111.841 86.5938 112.164C86.5312 112.487 86.5 112.836 86.5 113.211ZM98.4531 115.188C98.4531 115.01 98.4062 114.852 98.3125 114.711C98.2188 114.57 98.0417 114.443 97.7812 114.328C97.526 114.208 97.151 114.096 96.6562 113.992C96.2188 113.898 95.8151 113.781 95.4453 113.641C95.0755 113.5 94.7578 113.331 94.4922 113.133C94.2266 112.93 94.0182 112.693 93.8672 112.422C93.7214 112.146 93.6484 111.828 93.6484 111.469C93.6484 111.12 93.724 110.792 93.875 110.484C94.026 110.172 94.2448 109.898 94.5312 109.664C94.8177 109.424 95.1667 109.237 95.5781 109.102C95.9896 108.961 96.4531 108.891 96.9688 108.891C97.6875 108.891 98.3047 109.008 98.8203 109.242C99.3411 109.477 99.7396 109.799 100.016 110.211C100.292 110.617 100.43 111.076 100.43 111.586H98.3672C98.3672 111.362 98.3151 111.159 98.2109 110.977C98.112 110.794 97.9583 110.648 97.75 110.539C97.5417 110.424 97.2786 110.367 96.9609 110.367C96.6745 110.367 96.4323 110.414 96.2344 110.508C96.0417 110.602 95.8958 110.724 95.7969 110.875C95.6979 111.026 95.6484 111.193 95.6484 111.375C95.6484 111.51 95.6745 111.633 95.7266 111.742C95.7839 111.846 95.875 111.943 96 112.031C96.125 112.12 96.2943 112.201 96.5078 112.273C96.7266 112.346 96.9948 112.417 97.3125 112.484C97.9427 112.609 98.4922 112.776 98.9609 112.984C99.4349 113.188 99.8047 113.458 100.07 113.797C100.336 114.135 100.469 114.568 100.469 115.094C100.469 115.469 100.388 115.812 100.227 116.125C100.065 116.432 99.8307 116.701 99.5234 116.93C99.2161 117.159 98.849 117.339 98.4219 117.469C97.9948 117.594 97.513 117.656 96.9766 117.656C96.2005 117.656 95.5443 117.518 95.0078 117.242C94.4714 116.961 94.0651 116.607 93.7891 116.18C93.513 115.747 93.375 115.299 93.375 114.836H95.3516C95.3672 115.164 95.4557 115.427 95.6172 115.625C95.7786 115.823 95.9818 115.966 96.2266 116.055C96.4766 116.138 96.7396 116.18 97.0156 116.18C97.3281 116.18 97.5911 116.138 97.8047 116.055C98.0182 115.966 98.1797 115.849 98.2891 115.703C98.3984 115.552 98.4531 115.38 98.4531 115.188Z" fill="#002E19"/>
<g clip-path="url(#clip0_153_3683)">
<g clip-path="url(#clip1_153_3683)">
<path fill-rule="evenodd" clip-rule="evenodd" d="M23.5024 21H27.1774C27.455 21 27.6799 21.1989 27.6799 21.4443V27.3138H66.3201V21.4443C66.3201 21.1989 66.545 21 66.8226 21H70.4976C70.7751 21 71 21.1989 71 21.4443V72.5514C71 72.7969 70.7751 72.9958 70.4976 72.9958H66.8226C66.545 72.9958 66.3201 72.7969 66.3201 72.5514V69.0729H27.6799V72.5514C27.6799 72.7969 27.455 72.9958 27.1774 72.9958H23.5024C23.2249 72.9958 23 72.7969 23 72.5514V21.4443C23 21.1989 23.2249 21 23.5024 21ZM39.839 58.4977H36.6425C35.8769 58.4977 35.25 59.0521 35.25 59.7292C35.25 60.4062 35.8769 60.9606 36.6425 60.9606H39.839C40.6046 60.9606 41.2315 60.4062 41.2315 59.7292C41.2315 59.0521 40.6046 58.4977 39.839 58.4977ZM57.3623 57.207H54.1658C53.4002 57.207 52.7733 57.7614 52.7733 58.4385C52.7733 59.1156 53.4002 59.6699 54.1658 59.6699H57.3623C58.1279 59.6699 58.7548 59.1156 58.7548 58.4385C58.7548 57.7614 58.1279 57.207 57.3623 57.207ZM54.1658 41.139H57.3623C58.1279 41.139 58.7548 41.6934 58.7548 42.3704C58.7548 43.0475 58.1279 43.6019 57.3623 43.6019H54.1658C53.4002 43.6019 52.7733 43.0475 52.7733 42.3704C52.7733 41.6934 53.4002 41.139 54.1658 41.139ZM36.6425 39.8441H39.839C40.6046 39.8441 41.2315 40.3984 41.2315 41.0755C41.2315 41.7526 40.6046 42.307 39.839 42.307H36.6425C35.8769 42.307 35.25 41.7526 35.25 41.0755C35.2452 40.3984 35.8721 39.8441 36.6425 39.8441ZM66.3201 64.9342V52.2305H27.6799V64.9342H30.5893V56.7246C30.5893 56.3311 30.7615 55.9671 31.0439 55.6878L31.1061 55.6244C31.4267 55.3408 31.8621 55.1673 32.3502 55.1673H44.1313C44.6146 55.1673 45.0548 55.3408 45.3754 55.6244C45.696 55.9079 45.8922 56.2972 45.8922 56.7246V64.9342H48.1126V55.4297C48.1126 55.0023 48.3087 54.613 48.6294 54.3294C48.95 54.0459 49.3854 53.8724 49.8735 53.8724H61.6546C62.1379 53.8724 62.5781 54.0459 62.8987 54.3294C63.2193 54.613 63.4155 55.0023 63.4155 55.4297V64.9342H66.3201ZM32.3741 64.9342H44.1074V56.7458H32.3741V64.9342ZM49.8974 64.9342H61.6306V55.4508H49.8974V64.9342ZM66.3201 48.0918V31.4609H27.6799V48.0918H30.5893V38.0667C30.5893 37.6393 30.7855 37.25 31.1061 36.9707V36.9665C31.4267 36.6829 31.8669 36.5094 32.3502 36.5094H44.1313C44.6146 36.5094 45.0548 36.6829 45.3754 36.9665C45.696 37.25 45.8922 37.6393 45.8922 38.0667V48.0918H48.1126V39.3617C48.1126 38.9342 48.3087 38.5449 48.6294 38.2614C48.95 37.9779 49.3902 37.8044 49.8735 37.8044H61.6546C62.1379 37.8044 62.5781 37.9779 62.8987 38.2614L62.9609 38.3249C63.2432 38.5999 63.4155 38.9681 63.4155 39.3617V48.0918H66.3201ZM32.3741 48.0918H44.1074V38.0879H32.3741V48.0918ZM49.8974 48.0918H61.6306V39.3828H49.8974V48.0918Z" fill="#00723F"/>
</g>
</g>
<defs>
<clipPath id="clip0_153_3683">
<rect width="55" height="68.75" fill="white" transform="translate(19.5 19.75)"/>
</clipPath>
<clipPath id="clip1_153_3683">
<rect width="48" height="52" fill="white" transform="translate(23 21)"/>
</clipPath>
</defs>
</svg>
