<svg width="103" height="120" viewBox="0 0 103 120" fill="none" xmlns="http://www.w3.org/2000/svg">
<rect x="4.5" y="0.5" width="94" height="94" rx="16" fill="#E5EAE8"/>
<path d="M2.52344 106.125H4.38281L7.49219 114.688L10.5938 106.125H12.4609L8.23438 117.5H6.74219L2.52344 106.125ZM1.58594 106.125H3.40625L3.73438 113.992V117.5H1.58594V106.125ZM11.5703 106.125H13.3984V117.5H11.25V113.992L11.5703 106.125ZM17.6172 109.047V117.5H15.5469V109.047H17.6172ZM15.4062 106.836C15.4062 106.529 15.5104 106.273 15.7188 106.07C15.9323 105.867 16.2188 105.766 16.5781 105.766C16.9375 105.766 17.2214 105.867 17.4297 106.07C17.6432 106.273 17.75 106.529 17.75 106.836C17.75 107.138 17.6432 107.391 17.4297 107.594C17.2214 107.797 16.9375 107.898 16.5781 107.898C16.2188 107.898 15.9323 107.797 15.7188 107.594C15.5104 107.391 15.4062 107.138 15.4062 106.836ZM23.0547 116.031C23.3464 116.031 23.6068 115.974 23.8359 115.859C24.0651 115.745 24.2474 115.583 24.3828 115.375C24.5234 115.167 24.599 114.924 24.6094 114.648H26.5547C26.5443 115.221 26.3828 115.734 26.0703 116.188C25.7578 116.641 25.3411 117 24.8203 117.266C24.3047 117.526 23.7266 117.656 23.0859 117.656C22.4349 117.656 21.8672 117.547 21.3828 117.328C20.8984 117.109 20.4948 116.805 20.1719 116.414C19.8542 116.023 19.6146 115.57 19.4531 115.055C19.2969 114.539 19.2188 113.987 19.2188 113.398V113.148C19.2188 112.56 19.2969 112.008 19.4531 111.492C19.6146 110.977 19.8542 110.523 20.1719 110.133C20.4948 109.742 20.8984 109.438 21.3828 109.219C21.8672 109 22.4323 108.891 23.0781 108.891C23.7604 108.891 24.3594 109.023 24.875 109.289C25.3958 109.555 25.8021 109.93 26.0938 110.414C26.3906 110.898 26.5443 111.469 26.5547 112.125H24.6094C24.599 111.823 24.5312 111.552 24.4062 111.312C24.2812 111.073 24.1042 110.88 23.875 110.734C23.6458 110.589 23.3672 110.516 23.0391 110.516C22.6901 110.516 22.3984 110.589 22.1641 110.734C21.9349 110.88 21.7552 111.081 21.625 111.336C21.5 111.586 21.4115 111.867 21.3594 112.18C21.3125 112.487 21.2891 112.81 21.2891 113.148V113.398C21.2891 113.742 21.3125 114.07 21.3594 114.383C21.4115 114.695 21.5 114.977 21.625 115.227C21.7552 115.471 21.9349 115.667 22.1641 115.812C22.3984 115.958 22.6953 116.031 23.0547 116.031ZM29.9922 110.773V117.5H27.9297V109.047H29.8828L29.9922 110.773ZM32.5625 108.992L32.5312 110.914C32.4167 110.893 32.2865 110.878 32.1406 110.867C32 110.857 31.8672 110.852 31.7422 110.852C31.4245 110.852 31.1458 110.896 30.9062 110.984C30.6667 111.068 30.4661 111.19 30.3047 111.352C30.1484 111.513 30.0286 111.711 29.9453 111.945C29.862 112.174 29.8151 112.435 29.8047 112.727L29.3594 112.672C29.3594 112.135 29.4141 111.638 29.5234 111.18C29.6328 110.721 29.7917 110.32 30 109.977C30.2083 109.633 30.4688 109.367 30.7812 109.18C31.099 108.987 31.4635 108.891 31.875 108.891C31.9896 108.891 32.112 108.901 32.2422 108.922C32.3776 108.938 32.4844 108.961 32.5625 108.992ZM33.1094 113.359V113.195C33.1094 112.576 33.1979 112.005 33.375 111.484C33.5521 110.958 33.8099 110.503 34.1484 110.117C34.487 109.732 34.901 109.432 35.3906 109.219C35.8802 109 36.4375 108.891 37.0625 108.891C37.6979 108.891 38.2604 109 38.75 109.219C39.2448 109.432 39.6615 109.732 40 110.117C40.3385 110.503 40.5964 110.958 40.7734 111.484C40.9505 112.005 41.0391 112.576 41.0391 113.195V113.359C41.0391 113.974 40.9505 114.544 40.7734 115.07C40.5964 115.591 40.3385 116.047 40 116.438C39.6615 116.823 39.2474 117.122 38.7578 117.336C38.2682 117.549 37.7083 117.656 37.0781 117.656C36.4531 117.656 35.8932 117.549 35.3984 117.336C34.9036 117.122 34.487 116.823 34.1484 116.438C33.8099 116.047 33.5521 115.591 33.375 115.07C33.1979 114.544 33.1094 113.974 33.1094 113.359ZM35.1719 113.195V113.359C35.1719 113.729 35.2083 114.076 35.2812 114.398C35.3542 114.721 35.4661 115.005 35.6172 115.25C35.7682 115.495 35.9635 115.688 36.2031 115.828C36.4479 115.964 36.7396 116.031 37.0781 116.031C37.4115 116.031 37.6979 115.964 37.9375 115.828C38.1771 115.688 38.3724 115.495 38.5234 115.25C38.6797 115.005 38.7943 114.721 38.8672 114.398C38.9401 114.076 38.9766 113.729 38.9766 113.359V113.195C38.9766 112.831 38.9401 112.49 38.8672 112.172C38.7943 111.849 38.6797 111.565 38.5234 111.32C38.3724 111.07 38.1745 110.875 37.9297 110.734C37.6901 110.589 37.401 110.516 37.0625 110.516C36.7292 110.516 36.4427 110.589 36.2031 110.734C35.9635 110.875 35.7682 111.07 35.6172 111.32C35.4661 111.565 35.3542 111.849 35.2812 112.172C35.2083 112.49 35.1719 112.831 35.1719 113.195ZM48.8281 106.125V117.5H46.6797V106.125H48.8281ZM53.4141 111.039V112.734H48.2656V111.039H53.4141ZM54.0156 106.125V107.82H48.2656V106.125H54.0156ZM57.5078 109.047V117.5H55.4375V109.047H57.5078ZM55.2969 106.836C55.2969 106.529 55.401 106.273 55.6094 106.07C55.8229 105.867 56.1094 105.766 56.4688 105.766C56.8281 105.766 57.112 105.867 57.3203 106.07C57.5339 106.273 57.6406 106.529 57.6406 106.836C57.6406 107.138 57.5339 107.391 57.3203 107.594C57.112 107.797 56.8281 107.898 56.4688 107.898C56.1094 107.898 55.8229 107.797 55.6094 107.594C55.401 107.391 55.2969 107.138 55.2969 106.836ZM61.5 110.852V117.5H59.4375V109.047H61.375L61.5 110.852ZM61.1719 112.969H60.5625C60.5677 112.354 60.651 111.797 60.8125 111.297C60.974 110.797 61.2005 110.367 61.4922 110.008C61.7891 109.648 62.1406 109.372 62.5469 109.18C62.9531 108.987 63.4062 108.891 63.9062 108.891C64.3125 108.891 64.6797 108.948 65.0078 109.062C65.3359 109.177 65.6172 109.359 65.8516 109.609C66.0911 109.859 66.2734 110.188 66.3984 110.594C66.5286 110.995 66.5938 111.49 66.5938 112.078V117.5H64.5156V112.062C64.5156 111.677 64.4583 111.372 64.3438 111.148C64.2344 110.924 64.0729 110.766 63.8594 110.672C63.651 110.578 63.3932 110.531 63.0859 110.531C62.7682 110.531 62.4896 110.596 62.25 110.727C62.0156 110.852 61.8177 111.026 61.6562 111.25C61.5 111.474 61.3802 111.732 61.2969 112.023C61.2135 112.315 61.1719 112.63 61.1719 112.969ZM73.0703 115.703V111.805C73.0703 111.518 73.0208 111.271 72.9219 111.062C72.8229 110.854 72.6719 110.693 72.4688 110.578C72.2656 110.464 72.0078 110.406 71.6953 110.406C71.4193 110.406 71.1771 110.453 70.9688 110.547C70.7656 110.641 70.6094 110.773 70.5 110.945C70.3906 111.112 70.3359 111.305 70.3359 111.523H68.2656C68.2656 111.174 68.349 110.844 68.5156 110.531C68.6823 110.214 68.9193 109.932 69.2266 109.688C69.5391 109.438 69.9115 109.242 70.3438 109.102C70.7812 108.961 71.2708 108.891 71.8125 108.891C72.4531 108.891 73.0234 109 73.5234 109.219C74.0286 109.432 74.4245 109.755 74.7109 110.188C75.0026 110.62 75.1484 111.164 75.1484 111.82V115.508C75.1484 115.93 75.1745 116.292 75.2266 116.594C75.2839 116.891 75.3672 117.148 75.4766 117.367V117.5H73.375C73.276 117.286 73.2005 117.016 73.1484 116.688C73.0964 116.354 73.0703 116.026 73.0703 115.703ZM73.3594 112.352L73.375 113.578H72.0703C71.7474 113.578 71.4635 113.612 71.2188 113.68C70.974 113.742 70.7734 113.836 70.6172 113.961C70.4609 114.081 70.3438 114.227 70.2656 114.398C70.1875 114.565 70.1484 114.755 70.1484 114.969C70.1484 115.177 70.1953 115.365 70.2891 115.531C70.388 115.698 70.5286 115.831 70.7109 115.93C70.8984 116.023 71.1172 116.07 71.3672 116.07C71.7318 116.07 72.0495 115.997 72.3203 115.852C72.5911 115.701 72.8021 115.518 72.9531 115.305C73.1042 115.091 73.1849 114.888 73.1953 114.695L73.7891 115.586C73.7161 115.799 73.6068 116.026 73.4609 116.266C73.3151 116.505 73.1276 116.729 72.8984 116.938C72.6693 117.146 72.3932 117.318 72.0703 117.453C71.7474 117.589 71.3724 117.656 70.9453 117.656C70.3984 117.656 69.9089 117.547 69.4766 117.328C69.0443 117.109 68.7031 116.81 68.4531 116.43C68.2031 116.049 68.0781 115.617 68.0781 115.133C68.0781 114.685 68.1615 114.289 68.3281 113.945C68.4948 113.602 68.7422 113.312 69.0703 113.078C69.3984 112.839 69.8047 112.659 70.2891 112.539C70.7786 112.414 71.3385 112.352 71.9688 112.352H73.3594ZM79.0312 110.852V117.5H76.9688V109.047H78.9062L79.0312 110.852ZM78.7031 112.969H78.0938C78.099 112.354 78.1823 111.797 78.3438 111.297C78.5052 110.797 78.7318 110.367 79.0234 110.008C79.3203 109.648 79.6719 109.372 80.0781 109.18C80.4844 108.987 80.9375 108.891 81.4375 108.891C81.8438 108.891 82.2109 108.948 82.5391 109.062C82.8672 109.177 83.1484 109.359 83.3828 109.609C83.6224 109.859 83.8047 110.188 83.9297 110.594C84.0599 110.995 84.125 111.49 84.125 112.078V117.5H82.0469V112.062C82.0469 111.677 81.9896 111.372 81.875 111.148C81.7656 110.924 81.6042 110.766 81.3906 110.672C81.1823 110.578 80.9245 110.531 80.6172 110.531C80.2995 110.531 80.0208 110.596 79.7812 110.727C79.5469 110.852 79.349 111.026 79.1875 111.25C79.0312 111.474 78.9115 111.732 78.8281 112.023C78.7448 112.315 78.7031 112.63 78.7031 112.969ZM89.4141 116.031C89.7057 116.031 89.9661 115.974 90.1953 115.859C90.4245 115.745 90.6068 115.583 90.7422 115.375C90.8828 115.167 90.9583 114.924 90.9688 114.648H92.9141C92.9036 115.221 92.7422 115.734 92.4297 116.188C92.1172 116.641 91.7005 117 91.1797 117.266C90.6641 117.526 90.0859 117.656 89.4453 117.656C88.7943 117.656 88.2266 117.547 87.7422 117.328C87.2578 117.109 86.8542 116.805 86.5312 116.414C86.2135 116.023 85.974 115.57 85.8125 115.055C85.6562 114.539 85.5781 113.987 85.5781 113.398V113.148C85.5781 112.56 85.6562 112.008 85.8125 111.492C85.974 110.977 86.2135 110.523 86.5312 110.133C86.8542 109.742 87.2578 109.438 87.7422 109.219C88.2266 109 88.7917 108.891 89.4375 108.891C90.1198 108.891 90.7188 109.023 91.2344 109.289C91.7552 109.555 92.1615 109.93 92.4531 110.414C92.75 110.898 92.9036 111.469 92.9141 112.125H90.9688C90.9583 111.823 90.8906 111.552 90.7656 111.312C90.6406 111.073 90.4635 110.88 90.2344 110.734C90.0052 110.589 89.7266 110.516 89.3984 110.516C89.0495 110.516 88.7578 110.589 88.5234 110.734C88.2943 110.88 88.1146 111.081 87.9844 111.336C87.8594 111.586 87.7708 111.867 87.7188 112.18C87.6719 112.487 87.6484 112.81 87.6484 113.148V113.398C87.6484 113.742 87.6719 114.07 87.7188 114.383C87.7708 114.695 87.8594 114.977 87.9844 115.227C88.1146 115.471 88.2943 115.667 88.5234 115.812C88.7578 115.958 89.0547 116.031 89.4141 116.031ZM98.0859 117.656C97.4453 117.656 96.8698 117.552 96.3594 117.344C95.849 117.135 95.4141 116.846 95.0547 116.477C94.7005 116.102 94.4271 115.667 94.2344 115.172C94.0469 114.672 93.9531 114.135 93.9531 113.562V113.25C93.9531 112.599 94.0469 112.008 94.2344 111.477C94.4219 110.94 94.6875 110.479 95.0312 110.094C95.375 109.708 95.7865 109.411 96.2656 109.203C96.7448 108.995 97.2734 108.891 97.8516 108.891C98.4505 108.891 98.9792 108.992 99.4375 109.195C99.8958 109.393 100.279 109.674 100.586 110.039C100.893 110.404 101.125 110.841 101.281 111.352C101.438 111.857 101.516 112.417 101.516 113.031V113.898H94.8906V112.477H99.4844V112.32C99.474 111.992 99.4115 111.693 99.2969 111.422C99.1823 111.146 99.0052 110.927 98.7656 110.766C98.526 110.599 98.2161 110.516 97.8359 110.516C97.5286 110.516 97.2604 110.583 97.0312 110.719C96.8073 110.849 96.6198 111.036 96.4688 111.281C96.3229 111.521 96.2135 111.807 96.1406 112.141C96.0677 112.474 96.0312 112.844 96.0312 113.25V113.562C96.0312 113.917 96.0781 114.245 96.1719 114.547C96.2708 114.849 96.4141 115.112 96.6016 115.336C96.7943 115.555 97.0234 115.727 97.2891 115.852C97.5599 115.971 97.8672 116.031 98.2109 116.031C98.6432 116.031 99.0339 115.948 99.3828 115.781C99.737 115.609 100.044 115.357 100.305 115.023L101.344 116.102C101.167 116.362 100.927 116.612 100.625 116.852C100.328 117.091 99.9688 117.286 99.5469 117.438C99.125 117.583 98.638 117.656 98.0859 117.656Z" fill="#002E19"/>
<g clip-path="url(#clip0_153_3623)">
<path d="M29 65V29H33V61H65V65H29ZM35 59V41H43V59H35ZM45 59V31H53V59H45ZM55 59V49H63V59H55Z" fill="#00723F"/>
</g>
<defs>
<clipPath id="clip0_153_3623">
<rect width="55" height="68.75" fill="white" transform="translate(19.5 19.75)"/>
</clipPath>
</defs>
</svg>
