<svg width="95" height="120" viewBox="0 0 95 120" fill="none" xmlns="http://www.w3.org/2000/svg">
<rect x="0.5" y="0.5" width="94" height="94" rx="16" fill="#E5EAE8"/>
<path d="M19.9688 106.125V117.5H17.8281V106.125H19.9688ZM23.5 106.125V107.82H14.3359V106.125H23.5ZM27.8359 117.656C27.1953 117.656 26.6198 117.552 26.1094 117.344C25.599 117.135 25.1641 116.846 24.8047 116.477C24.4505 116.102 24.1771 115.667 23.9844 115.172C23.7969 114.672 23.7031 114.135 23.7031 113.562V113.25C23.7031 112.599 23.7969 112.008 23.9844 111.477C24.1719 110.94 24.4375 110.479 24.7812 110.094C25.125 109.708 25.5365 109.411 26.0156 109.203C26.4948 108.995 27.0234 108.891 27.6016 108.891C28.2005 108.891 28.7292 108.992 29.1875 109.195C29.6458 109.393 30.0286 109.674 30.3359 110.039C30.6432 110.404 30.875 110.841 31.0312 111.352C31.1875 111.857 31.2656 112.417 31.2656 113.031V113.898H24.6406V112.477H29.2344V112.32C29.224 111.992 29.1615 111.693 29.0469 111.422C28.9323 111.146 28.7552 110.927 28.5156 110.766C28.276 110.599 27.9661 110.516 27.5859 110.516C27.2786 110.516 27.0104 110.583 26.7812 110.719C26.5573 110.849 26.3698 111.036 26.2188 111.281C26.0729 111.521 25.9635 111.807 25.8906 112.141C25.8177 112.474 25.7812 112.844 25.7812 113.25V113.562C25.7812 113.917 25.8281 114.245 25.9219 114.547C26.0208 114.849 26.1641 115.112 26.3516 115.336C26.5443 115.555 26.7734 115.727 27.0391 115.852C27.3099 115.971 27.6172 116.031 27.9609 116.031C28.3932 116.031 28.7839 115.948 29.1328 115.781C29.487 115.609 29.7943 115.357 30.0547 115.023L31.0938 116.102C30.9167 116.362 30.6771 116.612 30.375 116.852C30.0781 117.091 29.7188 117.286 29.2969 117.438C28.875 117.583 28.388 117.656 27.8359 117.656ZM34.8359 105.5V117.5H32.7656V105.5H34.8359ZM40.6016 117.656C39.9609 117.656 39.3854 117.552 38.875 117.344C38.3646 117.135 37.9297 116.846 37.5703 116.477C37.2161 116.102 36.9427 115.667 36.75 115.172C36.5625 114.672 36.4688 114.135 36.4688 113.562V113.25C36.4688 112.599 36.5625 112.008 36.75 111.477C36.9375 110.94 37.2031 110.479 37.5469 110.094C37.8906 109.708 38.3021 109.411 38.7812 109.203C39.2604 108.995 39.7891 108.891 40.3672 108.891C40.9661 108.891 41.4948 108.992 41.9531 109.195C42.4115 109.393 42.7943 109.674 43.1016 110.039C43.4089 110.404 43.6406 110.841 43.7969 111.352C43.9531 111.857 44.0312 112.417 44.0312 113.031V113.898H37.4062V112.477H42V112.32C41.9896 111.992 41.9271 111.693 41.8125 111.422C41.6979 111.146 41.5208 110.927 41.2812 110.766C41.0417 110.599 40.7318 110.516 40.3516 110.516C40.0443 110.516 39.776 110.583 39.5469 110.719C39.3229 110.849 39.1354 111.036 38.9844 111.281C38.8385 111.521 38.7292 111.807 38.6562 112.141C38.5833 112.474 38.5469 112.844 38.5469 113.25V113.562C38.5469 113.917 38.5938 114.245 38.6875 114.547C38.7865 114.849 38.9297 115.112 39.1172 115.336C39.3099 115.555 39.5391 115.727 39.8047 115.852C40.0755 115.971 40.3828 116.031 40.7266 116.031C41.1589 116.031 41.5495 115.948 41.8984 115.781C42.2526 115.609 42.5599 115.357 42.8203 115.023L43.8594 116.102C43.6823 116.362 43.4427 116.612 43.1406 116.852C42.8438 117.091 42.4844 117.286 42.0625 117.438C41.6406 117.583 41.1536 117.656 40.6016 117.656ZM48.8828 116.031C49.1745 116.031 49.4349 115.974 49.6641 115.859C49.8932 115.745 50.0755 115.583 50.2109 115.375C50.3516 115.167 50.4271 114.924 50.4375 114.648H52.3828C52.3724 115.221 52.2109 115.734 51.8984 116.188C51.5859 116.641 51.1693 117 50.6484 117.266C50.1328 117.526 49.5547 117.656 48.9141 117.656C48.263 117.656 47.6953 117.547 47.2109 117.328C46.7266 117.109 46.3229 116.805 46 116.414C45.6823 116.023 45.4427 115.57 45.2812 115.055C45.125 114.539 45.0469 113.987 45.0469 113.398V113.148C45.0469 112.56 45.125 112.008 45.2812 111.492C45.4427 110.977 45.6823 110.523 46 110.133C46.3229 109.742 46.7266 109.438 47.2109 109.219C47.6953 109 48.2604 108.891 48.9062 108.891C49.5885 108.891 50.1875 109.023 50.7031 109.289C51.224 109.555 51.6302 109.93 51.9219 110.414C52.2188 110.898 52.3724 111.469 52.3828 112.125H50.4375C50.4271 111.823 50.3594 111.552 50.2344 111.312C50.1094 111.073 49.9323 110.88 49.7031 110.734C49.474 110.589 49.1953 110.516 48.8672 110.516C48.5182 110.516 48.2266 110.589 47.9922 110.734C47.763 110.88 47.5833 111.081 47.4531 111.336C47.3281 111.586 47.2396 111.867 47.1875 112.18C47.1406 112.487 47.1172 112.81 47.1172 113.148V113.398C47.1172 113.742 47.1406 114.07 47.1875 114.383C47.2396 114.695 47.3281 114.977 47.4531 115.227C47.5833 115.471 47.763 115.667 47.9922 115.812C48.2266 115.958 48.5234 116.031 48.8828 116.031ZM53.3906 113.359V113.195C53.3906 112.576 53.4792 112.005 53.6562 111.484C53.8333 110.958 54.0911 110.503 54.4297 110.117C54.7682 109.732 55.1823 109.432 55.6719 109.219C56.1615 109 56.7188 108.891 57.3438 108.891C57.9792 108.891 58.5417 109 59.0312 109.219C59.526 109.432 59.9427 109.732 60.2812 110.117C60.6198 110.503 60.8776 110.958 61.0547 111.484C61.2318 112.005 61.3203 112.576 61.3203 113.195V113.359C61.3203 113.974 61.2318 114.544 61.0547 115.07C60.8776 115.591 60.6198 116.047 60.2812 116.438C59.9427 116.823 59.5286 117.122 59.0391 117.336C58.5495 117.549 57.9896 117.656 57.3594 117.656C56.7344 117.656 56.1745 117.549 55.6797 117.336C55.1849 117.122 54.7682 116.823 54.4297 116.438C54.0911 116.047 53.8333 115.591 53.6562 115.07C53.4792 114.544 53.3906 113.974 53.3906 113.359ZM55.4531 113.195V113.359C55.4531 113.729 55.4896 114.076 55.5625 114.398C55.6354 114.721 55.7474 115.005 55.8984 115.25C56.0495 115.495 56.2448 115.688 56.4844 115.828C56.7292 115.964 57.0208 116.031 57.3594 116.031C57.6927 116.031 57.9792 115.964 58.2188 115.828C58.4583 115.688 58.6536 115.495 58.8047 115.25C58.9609 115.005 59.0755 114.721 59.1484 114.398C59.2214 114.076 59.2578 113.729 59.2578 113.359V113.195C59.2578 112.831 59.2214 112.49 59.1484 112.172C59.0755 111.849 58.9609 111.565 58.8047 111.32C58.6536 111.07 58.4557 110.875 58.2109 110.734C57.9714 110.589 57.6823 110.516 57.3438 110.516C57.0104 110.516 56.724 110.589 56.4844 110.734C56.2448 110.875 56.0495 111.07 55.8984 111.32C55.7474 111.565 55.6354 111.849 55.5625 112.172C55.4896 112.49 55.4531 112.831 55.4531 113.195ZM64.875 110.781V117.5H62.8125V109.047H64.7578L64.875 110.781ZM64.5703 112.969H63.9375C63.9375 112.38 64.0078 111.839 64.1484 111.344C64.2943 110.849 64.5078 110.419 64.7891 110.055C65.0703 109.685 65.4167 109.398 65.8281 109.195C66.2448 108.992 66.7266 108.891 67.2734 108.891C67.6536 108.891 68.0026 108.948 68.3203 109.062C68.638 109.172 68.9115 109.346 69.1406 109.586C69.375 109.82 69.5547 110.128 69.6797 110.508C69.8047 110.883 69.8672 111.333 69.8672 111.859V117.5H67.8047V112.07C67.8047 111.674 67.7474 111.365 67.6328 111.141C67.5234 110.917 67.3646 110.76 67.1562 110.672C66.9479 110.578 66.6979 110.531 66.4062 110.531C66.0833 110.531 65.8047 110.596 65.5703 110.727C65.3411 110.852 65.151 111.026 65 111.25C64.8542 111.474 64.7448 111.732 64.6719 112.023C64.6042 112.315 64.5703 112.63 64.5703 112.969ZM69.7109 112.586L68.8594 112.742C68.8646 112.211 68.9375 111.714 69.0781 111.25C69.2188 110.781 69.4245 110.372 69.6953 110.023C69.9714 109.669 70.3125 109.393 70.7188 109.195C71.1302 108.992 71.6042 108.891 72.1406 108.891C72.5573 108.891 72.9323 108.951 73.2656 109.07C73.6042 109.185 73.8932 109.37 74.1328 109.625C74.3724 109.875 74.5547 110.201 74.6797 110.602C74.8099 111.003 74.875 111.492 74.875 112.07V117.5H72.7969V112.062C72.7969 111.651 72.7396 111.336 72.625 111.117C72.5156 110.898 72.3568 110.747 72.1484 110.664C71.9401 110.576 71.6953 110.531 71.4141 110.531C71.1276 110.531 70.8776 110.586 70.6641 110.695C70.4557 110.799 70.2786 110.945 70.1328 111.133C69.9922 111.32 69.8854 111.539 69.8125 111.789C69.7448 112.034 69.7109 112.299 69.7109 112.586Z" fill="#002E19"/>
<g clip-path="url(#clip0_153_3657)">
<g clip-path="url(#clip1_153_3657)">
<path d="M31.3906 46.0469C31.6606 46.3209 31.7981 46.6753 31.7741 47.0357C31.7502 47.4041 31.5623 47.75 31.2503 48L31.2036 48.0326C30.8888 48.2711 30.479 48.3924 30.0624 48.3703C29.6426 48.3458 29.2495 48.1828 28.9633 47.9146L28.9165 47.8698C27.0617 46.0875 25.5517 44.055 24.4453 41.8517C23.4652 39.8839 22.9728 37.7585 23.0001 35.614C23.054 33.4591 23.6277 31.3381 24.6838 29.3884C25.8776 27.2066 27.4714 25.2084 29.4029 23.472C29.5503 23.3365 29.727 23.2276 29.9228 23.1515C30.1186 23.0754 30.3297 23.0336 30.5441 23.0285C30.7575 23.0255 30.9694 23.0599 31.1671 23.1299C31.3648 23.1998 31.5442 23.3037 31.6946 23.4354L31.7227 23.4598C32.0091 23.7189 32.1756 24.0608 32.1904 24.4201C32.1979 24.6047 32.1629 24.7887 32.0874 24.9613C32.0119 25.1339 31.8974 25.2916 31.7508 25.4252H31.7274C30.0795 26.9211 28.7127 28.6334 27.6771 30.4992C26.7783 32.1057 26.284 33.8605 26.2272 35.6465C26.2132 37.4375 26.6339 39.211 27.462 40.8508C28.4109 42.7104 29.691 44.4283 31.255 45.9411C31.2893 45.9592 31.3207 45.9811 31.3485 46.0062L31.3906 46.0469ZM29.3842 68.5729H34.9966L44.5798 39.333C44.3499 39.2121 44.131 39.0761 43.925 38.9261L43.5789 38.6698C42.6768 37.8725 42.1726 36.7978 42.1758 35.6791C42.1754 35.1286 42.301 34.5836 42.5453 34.0759C42.7848 33.5626 43.1357 33.0943 43.5789 32.6965C44.0305 32.3063 44.5662 31.9976 45.1553 31.7881C45.7445 31.5787 46.3754 31.4725 47.0118 31.4758C47.6534 31.473 48.2892 31.5808 48.8826 31.7932C49.4737 32.0052 50.0121 32.3147 50.4681 32.7046C50.9166 33.0975 51.2714 33.5636 51.5122 34.0761C51.7529 34.5887 51.875 35.1376 51.8712 35.6913C51.8703 36.0033 51.8311 36.3143 51.7543 36.619C51.6766 36.9164 51.5621 37.2056 51.4128 37.4816C51.0565 38.1616 50.4917 38.743 49.7806 39.1621L60.3553 68.5729H63.4374V72.9919H29.3842V68.5729ZM40.4921 68.5729H57.7969L55.711 62.8356L40.4921 68.5729ZM45.1691 45.3063L50.2763 47.7477L47.4234 39.8254C47.2799 39.8254 47.124 39.8254 46.9557 39.8254L45.1737 45.3145L45.1691 45.3063ZM51.5765 51.357L43.0784 56.549L54.6634 59.9141L51.5812 51.3692L51.5765 51.357ZM38.0133 67.1895L52.7926 61.6109L40.9598 58.1848L38.0086 67.1976L38.0133 67.1895ZM42.1758 54.5023L49.7011 49.9084L44.4862 47.4141L42.1477 54.4942L42.1758 54.5023ZM37.6578 41.3513C37.9027 41.6358 38.0131 41.991 37.9665 42.3441C37.9476 42.5261 37.8865 42.7029 37.7868 42.8638C37.6871 43.0246 37.5509 43.1662 37.3865 43.28L37.3211 43.3247C36.9957 43.5346 36.5923 43.6318 36.1892 43.5974C35.98 43.5793 35.777 43.525 35.5923 43.4376C35.4075 43.3503 35.2448 43.2316 35.1135 43.0887L35.0855 43.0602C34.0637 41.9822 33.2401 40.7729 32.6441 39.4754C32.0942 38.2578 31.8057 36.9628 31.7929 35.6546C31.7882 34.3596 32.066 33.0755 32.6113 31.8705C33.2052 30.5715 34.0324 29.3629 35.0621 28.2897C35.3306 27.9994 35.7207 27.8138 36.1466 27.7738C36.5724 27.7337 36.9991 27.8425 37.3328 28.0761C37.6664 28.3098 37.8798 28.6491 37.9258 29.0196C37.9718 29.3901 37.8468 29.7613 37.5783 30.0516C36.786 30.8808 36.1455 31.8113 35.6794 32.8104C34.8219 34.6219 34.8219 36.6548 35.6794 38.4663C36.1533 39.4944 36.8046 40.4535 37.611 41.3106L37.6578 41.3716V41.3513ZM65.0463 47.9105C64.76 48.1746 64.3684 48.3333 63.9519 48.354C63.7397 48.3653 63.5271 48.3399 63.3264 48.2791C63.1257 48.2183 62.9408 48.1235 62.7826 48L62.7546 47.9756C62.4513 47.7281 62.2688 47.3887 62.2448 47.0275C62.2306 46.8423 62.2593 46.6564 62.3292 46.481C62.3991 46.3055 62.5088 46.1441 62.6517 46.0062L62.6797 45.9818C64.2725 44.4556 65.5751 42.7179 66.5382 40.8345C67.367 39.1891 67.7877 37.4103 67.773 35.614C67.7219 33.8253 67.2341 32.0665 66.3418 30.4544C65.2964 28.5868 63.9166 26.8755 62.2541 25.3845L62.2167 25.3519C61.9444 25.0816 61.802 24.7304 61.8192 24.3713C61.8296 24.01 61.9967 23.6655 62.2869 23.4069L62.3243 23.3744C62.4768 23.2497 62.6561 23.1525 62.852 23.0882C63.0478 23.024 63.2563 22.994 63.4655 23C63.8906 23.012 64.2936 23.1682 64.5879 23.4354L64.6207 23.4639C66.5386 25.1952 68.1199 27.1866 69.3024 29.3599C70.3586 31.3067 70.9322 33.4251 70.9861 35.5773C71.0146 37.7285 70.5222 39.8608 69.5409 41.8355C68.4532 44.0087 66.9668 46.0137 65.1398 47.7722C65.1178 47.821 65.0844 47.8654 65.0416 47.9024L65.0463 47.9105ZM57.9887 43.1742C57.7225 43.4035 57.3744 43.5471 57.0019 43.5811C56.5772 43.6205 56.1519 43.5122 55.8186 43.28C55.4874 43.0463 55.2755 42.7084 55.2291 42.3396C55.1827 41.9708 55.3054 41.601 55.5707 41.3106C56.3708 40.469 57.019 39.5264 57.4929 38.5152C58.3522 36.6899 58.3522 34.6438 57.4929 32.8185V32.7982C57.0251 31.8073 56.3846 30.8851 55.5941 30.0638L55.552 30.0191C55.3244 29.7358 55.2246 29.3897 55.2714 29.0466C55.2926 28.8641 55.3551 28.687 55.4555 28.5257C55.5558 28.3643 55.692 28.2219 55.856 28.1066L55.8887 28.0863C56.217 27.8613 56.6329 27.7562 57.0486 27.7933C57.4625 27.8309 57.8424 28.0094 58.1056 28.2897L58.1337 28.3182C59.1542 29.3888 59.9735 30.5932 60.5611 31.8867C61.1064 33.0918 61.3842 34.3758 61.3795 35.6709C61.3667 36.9751 61.0781 38.2661 60.5283 39.4795C59.933 40.7915 59.1062 42.0147 58.0776 43.105C58.0519 43.1302 58.0237 43.1533 57.9934 43.1742H57.9887Z" fill="#00723F"/>
</g>
</g>
<defs>
<clipPath id="clip0_153_3657">
<rect width="55" height="68.75" fill="white" transform="translate(19.5 19.75)"/>
</clipPath>
<clipPath id="clip1_153_3657">
<rect width="48" height="50" fill="white" transform="translate(23 23)"/>
</clipPath>
</defs>
</svg>
