<svg width="25" height="24" viewBox="0 0 25 24" fill="none" xmlns="http://www.w3.org/2000/svg">
<g clip-path="url(#clip0_544_471)">
<path d="M24.8008 22.2422L20.3008 17.7422V24H24.8008V22.2422ZM18.8008 16.2422L14.3008 11.7422V24H18.8008V16.2422ZM3.80078 10.5H2.30078V24H6.80078V13.2422L3.80078 10.5ZM9.05078 15.4922L8.30078 14.7422V24H12.8008V11.7422L9.05078 15.4922ZM0.800781 3V9H2.30078V5.56641L9.05078 12.3047L13.5508 7.80469L24.8008 19.0664V16.9336L13.5508 5.69531L9.05078 10.1953L3.36719 4.5H6.80078V3H0.800781Z" fill="white"/>
</g>
<defs>
<clipPath id="clip0_544_471">
<rect width="24" height="24" fill="white" transform="matrix(-1 0 0 1 24.8008 0)"/>
</clipPath>
</defs>
</svg>
