<svg width="68" height="69" viewBox="0 0 68 69" fill="none" xmlns="http://www.w3.org/2000/svg">
<g clip-path="url(#clip0_214_1285)">
<path d="M68 63.5195L55.25 50.7695V68.5H68V63.5195ZM51 46.5195L38.25 33.7695V68.5H51V46.5195ZM8.5 30.25H4.25V68.5H17V38.0195L8.5 30.25ZM23.375 44.3945L21.25 42.2695V68.5H34V33.7695L23.375 44.3945ZM0 9V26H4.25V16.2715L23.375 35.3633L36.125 22.6133L68 54.5215V48.4785L36.125 16.6367L23.375 29.3867L7.27148 13.25H17V9H0Z" fill="white"/>
</g>
<defs>
<clipPath id="clip0_214_1285">
<rect width="68" height="68" fill="white" transform="matrix(-1 0 0 1 68 0.5)"/>
</clipPath>
</defs>
</svg>
