<svg width="24" height="24" viewBox="0 0 24 24" fill="none" xmlns="http://www.w3.org/2000/svg">
<path fill-rule="evenodd" clip-rule="evenodd" d="M3.3584 12.956L9.80493 0.0172119L11.0458 2.50769C9.77159 4.07629 9.07719 6.03885 9.0803 8.06261C9.08071 8.45214 9.10581 8.84125 9.15543 9.22759C6.98219 10.0452 5.0064 11.3159 3.3584 12.956Z" fill="#00723F"/>
<path fill-rule="evenodd" clip-rule="evenodd" d="M14.4949 10.5822C14.8426 11.0504 15.2834 11.4409 15.7895 11.729C16.2956 12.0171 16.8558 12.1964 17.4347 12.2557C18.0135 12.3149 18.5983 12.2527 19.1519 12.0731C19.7055 11.8934 20.2159 11.6002 20.6506 11.2121L22.3906 14.6998C21.4992 15.3121 20.4936 15.7373 19.4343 15.9498C18.375 16.1624 17.2839 16.1579 16.2263 15.9367C15.1688 15.7154 14.1667 15.2819 13.2803 14.6623C12.3939 14.0427 11.6414 13.2497 11.068 12.3309C12.1298 11.5993 13.2817 11.009 14.4949 10.5749M17.8611 0.00984885C19.4782 0.00800991 21.0578 0.499075 22.3906 1.41804L20.6506 4.90811C20.0456 4.36873 19.2982 4.01623 18.4983 3.89301C17.6985 3.76979 16.8801 3.88111 16.1418 4.21356C15.4035 4.54601 14.7766 5.08545 14.3365 5.76698C13.8964 6.44852 13.6619 7.24313 13.6612 8.05525C13.6612 8.11362 13.6612 8.16956 13.6612 8.2255C12.381 8.32078 11.1162 8.56564 9.89262 8.95513C9.76572 7.8292 9.8771 6.68908 10.2195 5.60933C10.5618 4.52957 11.1275 3.53451 11.8794 2.68923C12.6314 1.84395 13.5526 1.16749 14.583 0.7041C15.6134 0.240706 16.7296 0.000816848 17.8587 0.00012207L17.8611 0.00984885Z" fill="#FDB813"/>
<path fill-rule="evenodd" clip-rule="evenodd" d="M14.9089 8.95276C15.6753 8.95304 16.4407 9.00913 17.1991 9.12058C15.002 9.447 12.8993 10.2389 11.0307 11.4436C9.16209 12.6484 7.57032 14.2384 6.36118 16.108H1.77832C3.19826 13.9106 5.14359 12.1047 7.43704 10.8549C9.73049 9.60516 12.2991 8.95124 14.9089 8.95276Z" fill="#00723F"/>
<path fill-rule="evenodd" clip-rule="evenodd" d="M14.274 16.108H7.28223C8.16021 14.8448 9.22791 13.7258 10.4473 12.7906C11.3721 14.2473 12.7015 15.4005 14.2716 16.108" fill="#00723F"/>
<path fill-rule="evenodd" clip-rule="evenodd" d="M9.23568 16.108H7.29688C8.17045 14.8459 9.23319 13.7269 10.4474 12.7906C9.76256 13.7717 9.34486 14.9152 9.23568 16.108Z" fill="#00582D"/>
<path fill-rule="evenodd" clip-rule="evenodd" d="M3.63715 16.108H1.77832C3.53851 13.3927 6.08876 11.2869 9.08277 10.0764C7.80905 10.6496 6.66753 11.4815 5.73026 12.5197C4.79298 13.5578 4.08029 14.7796 3.63715 16.108Z" fill="#00582D"/>
<path d="M18.4238 16.0885H18.4092C18.5062 16.0885 18.6031 16.0763 18.6976 16.0666C17.9634 15.9968 17.241 15.8333 16.548 15.5802C15.4876 15.1491 14.5051 14.546 13.6398 13.795C13.0921 13.2903 12.6101 12.7183 12.2051 12.0926C12.9074 11.5027 13.679 11.0012 14.5025 10.5992C13.6353 10.9105 12.7988 11.3022 12.0039 11.7691C11.8512 11.8566 11.701 11.9491 11.5507 12.0439L11.5313 12.0561C11.3786 12.1534 11.2284 12.2531 11.0781 12.3552C11.7989 13.5086 12.7995 14.4594 13.9864 15.1188C15.1732 15.7781 16.5074 16.1243 17.8639 16.125C17.9972 16.125 18.1281 16.125 18.2614 16.125H18.3074L18.4238 16.0885Z" fill="#D09910"/>
<path d="M12.37 2.20361C11.4617 3.06116 10.7651 4.11942 10.3355 5.29436C9.90602 6.46931 9.75538 7.72857 9.89559 8.97216C10.2228 8.86515 10.5572 8.77029 10.8917 8.68517C10.8167 8.21707 10.7787 7.74378 10.7777 7.26969C10.7762 5.45678 11.3323 3.68758 12.37 2.20361Z" fill="#D09910"/>
<path d="M0.356256 23.4092H0.908816L0.637384 22.6796L0.356256 23.4092ZM0.569526 22.5482H0.719782L1.27234 23.9637H1.12936L0.957285 23.5235H0.312631L0.142986 23.9637H0L0.569526 22.5482Z" fill="#00582D"/>
<path d="M2.30224 23.8493H2.59064C2.75014 23.8634 2.90872 23.8135 3.03171 23.7106C3.12342 23.5768 3.17251 23.4183 3.17251 23.2558C3.17251 23.0934 3.12342 22.9349 3.03171 22.801C2.90872 22.6982 2.75014 22.6483 2.59064 22.6624H2.30224V23.8493ZM2.16895 22.5481H2.65365C2.7426 22.5412 2.83198 22.5537 2.91565 22.5848C2.99931 22.6159 3.07529 22.6647 3.13835 22.7281C3.24572 22.883 3.30327 23.0672 3.30327 23.2558C3.30327 23.4445 3.24572 23.6287 3.13835 23.7836C3.07529 23.8469 2.99931 23.8958 2.91565 23.9269C2.83198 23.958 2.7426 23.9705 2.65365 23.9636H2.16895V22.5481Z" fill="#00582D"/>
<path d="M4.42478 23.8493H4.71075C4.79121 23.8639 4.87402 23.8586 4.95197 23.8338C5.02992 23.809 5.10065 23.7655 5.15799 23.707C5.21534 23.6485 5.25756 23.5768 5.28098 23.4981C5.30441 23.4195 5.30833 23.3363 5.29239 23.2558C5.30758 23.0919 5.25797 22.9286 5.15426 22.801C5.03052 22.6978 4.87104 22.6479 4.71075 22.6624H4.42478V23.8493ZM4.28906 22.5481H4.77376C4.86271 22.5412 4.95209 22.5537 5.03576 22.5848C5.11943 22.6159 5.19541 22.6647 5.25847 22.7281C5.36717 22.8824 5.42554 23.0668 5.42554 23.2558C5.42554 23.4449 5.36717 23.6292 5.25847 23.7836C5.19541 23.8469 5.11943 23.8958 5.03576 23.9269C4.95209 23.958 4.86271 23.9705 4.77376 23.9636H4.28906V22.5481Z" fill="#00582D"/>
<path d="M6.55759 22.5482H6.42188V23.9661H6.55759V22.5482Z" fill="#00582D"/>
<path d="M7.67988 23.4796C7.67403 23.5372 7.68248 23.5953 7.70447 23.6488C7.72646 23.7022 7.76131 23.7494 7.8059 23.7861C7.90535 23.8525 8.02349 23.8849 8.14277 23.8785C8.22879 23.8754 8.31244 23.8494 8.38512 23.8031C8.4221 23.7817 8.45279 23.7508 8.47407 23.7137C8.49534 23.6765 8.50646 23.6344 8.50629 23.5915C8.50824 23.5591 8.50164 23.5268 8.48718 23.4977C8.47271 23.4687 8.45089 23.444 8.42389 23.4261C8.3606 23.3834 8.28992 23.3529 8.21547 23.3361L7.90042 23.2583C7.81509 23.2409 7.73574 23.2015 7.67018 23.144C7.64007 23.115 7.61665 23.0797 7.60158 23.0406C7.58651 23.0015 7.58014 22.9596 7.58293 22.9178C7.58387 22.816 7.62378 22.7185 7.69442 22.6454C7.74414 22.5989 7.80306 22.5633 7.86736 22.5411C7.93166 22.5189 7.9999 22.5105 8.06764 22.5165C8.20115 22.5127 8.33196 22.5548 8.43844 22.6357C8.48855 22.6744 8.5286 22.7247 8.55518 22.7823C8.58177 22.8399 8.59409 22.9031 8.59111 22.9665H8.4554C8.4575 22.9199 8.44848 22.8736 8.42908 22.8313C8.40969 22.789 8.38049 22.7519 8.34392 22.7233C8.26511 22.6639 8.16858 22.633 8.07006 22.6357C7.98471 22.6341 7.90067 22.6569 7.82771 22.7014C7.79403 22.7259 7.7672 22.7586 7.7498 22.7965C7.7324 22.8345 7.72501 22.8762 7.72835 22.9178C7.72687 22.9436 7.7311 22.9694 7.74073 22.9934C7.75037 23.0174 7.76518 23.0389 7.78409 23.0565C7.83049 23.0933 7.8842 23.1199 7.94162 23.1343L8.28575 23.2194C8.38491 23.2408 8.47779 23.285 8.55718 23.3483C8.58981 23.3794 8.6152 23.4173 8.63154 23.4593C8.64788 23.5013 8.65476 23.5465 8.6517 23.5915C8.64792 23.6915 8.60933 23.7871 8.54264 23.8615C8.48469 23.9138 8.4161 23.9529 8.34161 23.976C8.26713 23.9991 8.18853 24.0056 8.11126 23.9952C7.96334 24.0034 7.81733 23.9586 7.69926 23.8688C7.64735 23.8194 7.60695 23.7592 7.58097 23.6923C7.55499 23.6255 7.54408 23.5537 7.549 23.4821L7.67988 23.4796Z" fill="#00582D"/>
<path d="M11.1575 22.9667C11.1372 22.8693 11.082 22.7828 11.0024 22.7235C10.9222 22.6629 10.824 22.6312 10.7237 22.6335C10.6476 22.629 10.5716 22.6432 10.5023 22.675C10.433 22.7068 10.3725 22.7552 10.3262 22.816C10.2356 22.9444 10.1889 23.0988 10.1929 23.2562C10.1889 23.4135 10.2356 23.5679 10.3262 23.6964C10.3728 23.7568 10.4333 23.805 10.5025 23.8367C10.5718 23.8685 10.6476 23.8829 10.7237 23.8788C10.7818 23.8802 10.8397 23.8695 10.8935 23.8474C10.9473 23.8252 10.9959 23.792 11.0363 23.7499C11.1187 23.6614 11.1684 23.5472 11.1768 23.4264H11.3126C11.3028 23.5825 11.2364 23.7296 11.126 23.8399C11.0726 23.8912 11.0095 23.9313 10.9403 23.9576C10.8712 23.9839 10.7975 23.996 10.7237 23.9931C10.6317 23.9966 10.5402 23.979 10.4562 23.9414C10.3722 23.9039 10.2979 23.8475 10.2389 23.7766C10.1257 23.626 10.0645 23.4424 10.0645 23.2537C10.0645 23.065 10.1257 22.8815 10.2389 22.7308C10.298 22.6602 10.3724 22.6042 10.4564 22.5671C10.5405 22.53 10.6319 22.5128 10.7237 22.5168C10.859 22.516 10.9911 22.5577 11.1017 22.636C11.155 22.6743 11.1994 22.7237 11.232 22.7808C11.2646 22.8378 11.2847 22.9012 11.2908 22.9667H11.1575Z" fill="#00582D"/>
<path d="M12.2842 22.5482H12.4175V23.1635H13.256V22.5482H13.3917V23.9661H13.256V23.2778H12.4175V23.9661H12.2842V22.5482Z" fill="#00582D"/>
<path d="M14.6424 23.4092H15.1974L14.9259 22.6796L14.6424 23.4092ZM14.8557 22.5482H15.0059L15.5609 23.9637H15.4155L15.2434 23.5235H14.6012L14.4291 23.9637H14.2861L14.8557 22.5482Z" fill="#00582D"/>
<path d="M16.4531 22.5482H16.6494L17.139 23.791L17.6261 22.5482H17.8224V23.9661H17.6891V22.7404L17.202 23.9661H17.0784L16.5913 22.7379L16.5864 23.9661H16.4531V22.5482Z" fill="#00582D"/>
<path d="M19.0054 23.1684H19.4683C19.5541 23.175 19.6397 23.1518 19.7106 23.1027C19.7366 23.0818 19.7574 23.0551 19.7713 23.0247C19.7852 22.9943 19.7918 22.961 19.7906 22.9276C19.7906 22.75 19.6864 22.6625 19.4731 22.6625H19.0102L19.0054 23.1684ZM19.0054 23.8493H19.4683C19.5624 23.8542 19.6559 23.8313 19.7373 23.7837C19.7729 23.7586 19.8012 23.7244 19.8191 23.6846C19.837 23.6448 19.8439 23.6009 19.839 23.5575C19.8406 23.5181 19.8326 23.4789 19.8157 23.4433C19.7988 23.4077 19.7736 23.3768 19.7421 23.3532C19.6605 23.3014 19.5646 23.2768 19.4683 23.2827H19.0054V23.8493ZM18.8721 22.5482H19.4683C19.5827 22.5427 19.6964 22.5705 19.7954 22.6284C19.8381 22.6573 19.8723 22.6971 19.8944 22.7437C19.9166 22.7904 19.9259 22.8421 19.9214 22.8935C19.9225 22.9307 19.9168 22.9678 19.9045 23.003C19.889 23.0451 19.8669 23.0846 19.839 23.1197C19.7984 23.1699 19.7404 23.2029 19.6767 23.2121C19.7607 23.2228 19.8381 23.2634 19.8948 23.3264C19.9503 23.3949 19.9787 23.4815 19.9748 23.5697C19.9753 23.6721 19.9392 23.7713 19.873 23.8493C19.818 23.8972 19.7534 23.9329 19.6836 23.9538C19.6139 23.9748 19.5404 23.9806 19.4683 23.9709H18.8721V22.5482Z" fill="#00582D"/>
<path d="M20.9561 22.5482H21.9327V22.6625H21.0918V23.1757H21.8794V23.29H21.0918V23.8494H21.9424V23.9661H20.9561V22.5482Z" fill="#00582D"/>
<path d="M23.0308 23.2194H23.5348C23.6128 23.2216 23.6888 23.1948 23.7481 23.144C23.7775 23.1201 23.801 23.0896 23.8166 23.055C23.8321 23.0203 23.8394 22.9825 23.8378 22.9446C23.8394 22.9066 23.8333 22.8688 23.82 22.8333C23.8067 22.7977 23.7863 22.7653 23.7602 22.7378C23.6979 22.6839 23.6169 22.6568 23.5348 22.6624H23.0308V23.2194ZM22.8975 22.5481H23.5348C23.6457 22.5424 23.7553 22.575 23.8451 22.6406C23.885 22.6738 23.9166 22.716 23.9372 22.7637C23.9578 22.8115 23.967 22.8634 23.9638 22.9154C23.9673 23.002 23.9427 23.0873 23.8935 23.1586C23.8425 23.2245 23.7692 23.2695 23.6875 23.2851C23.7245 23.2876 23.7605 23.298 23.7931 23.3156C23.8257 23.3332 23.8541 23.3576 23.8766 23.3872C23.9176 23.4535 23.9379 23.5306 23.9347 23.6085C23.9349 23.68 23.939 23.7515 23.9468 23.8226C23.9496 23.8762 23.9682 23.9278 24.0002 23.9709H23.8523C23.84 23.9455 23.831 23.9185 23.8257 23.8907C23.8257 23.8663 23.8257 23.8469 23.8257 23.8299C23.8257 23.8128 23.8257 23.7885 23.8257 23.752C23.8381 23.6383 23.8126 23.5237 23.753 23.4261C23.7265 23.3977 23.6941 23.3756 23.658 23.3613C23.622 23.347 23.5832 23.3409 23.5445 23.3434H23.0332V23.9709H22.8999L22.8975 22.5481Z" fill="#00582D"/>
<path fill-rule="evenodd" clip-rule="evenodd" d="M17.7594 19.5032C17.7594 19.1967 17.7594 18.8198 17.4831 18.6349C17.4228 18.5951 17.3576 18.5632 17.2892 18.5401C17.2102 18.5162 17.129 18.4999 17.0469 18.4914C16.979 18.4914 16.9087 18.4793 16.8385 18.4768V19.5032H17.7594ZM15.3989 19.5032V18.4744C15.277 18.4789 15.1555 18.4919 15.0354 18.5133C14.5313 18.5984 14.3665 19.0435 14.4052 19.5032H15.3989ZM3.67638 18.506V19.5007H4.72818C4.72978 19.3244 4.7086 19.1487 4.66517 18.9778C4.6437 18.9078 4.61184 18.8414 4.57065 18.7808C4.38889 18.5084 3.98417 18.4963 3.67638 18.5084V18.506ZM15.2268 20.0309H13.9084L13.8745 20.0018V19.9799C13.8624 19.8753 13.8503 19.7707 13.843 19.6661C13.8357 19.5615 13.843 19.4764 13.843 19.3816C13.8432 19.1575 13.8931 18.9362 13.9891 18.7339C14.0851 18.5316 14.2248 18.3532 14.398 18.2117C14.5096 18.1358 14.6322 18.0776 14.7615 18.039C14.8939 17.9976 15.0305 17.9707 15.1687 17.9588C15.3116 17.9466 15.4546 17.9393 15.5976 17.9393H16.6664C16.8048 17.9385 16.9431 17.945 17.0808 17.9588C17.2137 17.9689 17.3453 17.9925 17.4734 18.0293C17.5953 18.0658 17.7112 18.1198 17.8176 18.1898C17.9269 18.2631 18.0208 18.3573 18.0938 18.4671C18.1744 18.5946 18.2341 18.7342 18.2707 18.8806C18.3159 19.0693 18.337 19.2629 18.3338 19.457C18.3338 19.5445 18.3338 19.6321 18.3338 19.7172C18.3338 19.8023 18.3168 19.8923 18.3047 19.9823V20.0042L18.2707 20.0309H16.3319L16.298 19.9969V18.4744H15.9781V19.9069V19.9215L15.1832 21.2932L15.1565 21.3078H14.5676L14.5337 21.2494L15.2268 20.0309ZM18.6197 19.4764C18.591 19.0511 18.7045 18.6283 18.9421 18.275C19.0633 18.1398 19.2136 18.0341 19.3815 17.9659C19.5495 17.8976 19.7307 17.8686 19.9115 17.881C20.0844 17.8694 20.2576 17.8975 20.4181 17.9633C20.5785 18.029 20.7219 18.1306 20.8372 18.2604C21.064 18.5999 21.1723 19.0053 21.145 19.4132V21.2665L21.1111 21.3005H20.6264L20.5925 21.2665V19.4448C20.6117 19.1659 20.5484 18.8876 20.4107 18.6446C20.3499 18.5631 20.2696 18.4981 20.1774 18.4556C20.0851 18.4131 19.9837 18.3945 19.8824 18.4014C19.784 18.396 19.6859 18.4155 19.597 18.458C19.5081 18.5004 19.4312 18.5646 19.3734 18.6446C19.242 18.8783 19.1814 19.1454 19.1989 19.4132V21.2762L19.165 21.3102H18.6682L18.6343 21.2762L18.6197 19.4764ZM1.06142 18.8635H1.76181L1.79574 18.9268L1.77635 18.956C1.68426 19.0889 1.59459 19.2251 1.50734 19.3645C1.43706 19.4837 1.36678 19.6078 1.29892 19.7245H2.09141L2.12291 19.7488L2.51067 21.2665L2.47674 21.3102H1.99204L1.96054 21.2859L1.6988 20.2279H1.06384C0.937811 20.4781 0.830871 20.7374 0.743937 21.0038C0.717279 21.0889 0.693043 21.1789 0.671231 21.2665V21.2859L0.639724 21.3102H0.155023L0.121094 21.2665V21.2373C0.185468 20.9889 0.266435 20.7451 0.363445 20.5076C0.516845 20.1126 0.705856 19.7324 0.928122 19.3718H0.47735L0.443421 19.3378V18.9195V18.9024L1.10019 17.9588L1.12685 17.9466H1.63094L1.66487 18.0099L1.06142 18.8635ZM4.77423 20.8238H3.35163C3.32536 20.9927 3.27389 21.1567 3.19895 21.3102V21.3297L3.15775 21.3467L2.70698 21.1619L2.69001 21.1132L2.69244 21.0865C2.79203 20.8699 2.83299 20.6308 2.81119 20.3933V20.3568L2.84512 20.3204H3.17714C3.17714 19.5567 3.17714 18.793 3.17714 18.0293V18.0074L3.20622 17.9758H3.22561C3.31528 17.9758 3.40252 17.9564 3.48977 17.9491C3.57701 17.9418 3.66184 17.9369 3.74909 17.9369C3.94244 17.9335 4.13545 17.9547 4.32346 18.0001C4.46948 18.0365 4.60863 18.0965 4.73545 18.1777C4.84484 18.2509 4.93874 18.3452 5.01173 18.4549C5.08149 18.5616 5.13537 18.678 5.17168 18.8003C5.20802 18.9291 5.23236 19.061 5.24439 19.1943C5.25651 19.3427 5.26136 19.4983 5.26136 19.6467V19.9945L5.22743 20.0285H3.73697V20.3252H5.21046H5.2347L5.26863 20.3593V20.7922H5.843L5.87693 20.8287V20.8554C5.85417 21.0953 5.89515 21.337 5.99568 21.5559L6.00779 21.5778L5.99083 21.6264L5.54006 21.8088L5.49644 21.7942V21.7748C5.42125 21.6213 5.36977 21.4573 5.34375 21.2883H4.82028L4.78635 21.2543L4.77423 20.8238ZM7.00386 18.489L6.67184 18.0026L6.70334 17.9393H7.28014L7.30437 17.9539L7.62912 18.4403C7.78497 18.4467 7.93755 18.4873 8.07613 18.5591C8.21471 18.631 8.33593 18.7324 8.4313 18.8562C8.63474 19.1896 8.73119 19.5776 8.70759 19.9677V21.2786L8.67365 21.3127H8.17684L8.14291 21.2786V19.9969C8.16058 19.7185 8.09834 19.4408 7.96357 19.1967C7.90234 19.115 7.82171 19.0499 7.729 19.0074C7.6363 18.9649 7.53448 18.9464 7.43282 18.9535C7.33577 18.9465 7.23849 18.9637 7.14968 19.0036C7.06087 19.0434 6.98329 19.1048 6.92388 19.1821C6.79245 19.4158 6.7318 19.6829 6.74939 19.9507V21.2737L6.71546 21.3078H6.21864L6.18471 21.2737V20.0236C6.16786 19.6592 6.24464 19.2966 6.40767 18.9705C6.53646 18.7379 6.7516 18.5657 7.00628 18.4914L7.00386 18.489ZM23.2268 18.4744L22.2574 18.4939C22.1893 18.4945 22.124 18.5218 22.0756 18.5699C22.0272 18.6181 21.9994 18.6833 21.9981 18.7517V20.4955C21.9981 20.5641 22.0251 20.6299 22.0732 20.6786C22.1213 20.7274 22.1866 20.7551 22.255 20.7557H23.7091L23.743 20.7898V20.8141C23.7471 20.9711 23.7657 21.1275 23.7988 21.281C23.8181 21.3787 23.8499 21.4736 23.8933 21.5632V21.5851L23.8739 21.6337L23.4255 21.8161L23.3819 21.8015V21.7821C23.3405 21.6993 23.3065 21.613 23.2801 21.5243C23.2603 21.453 23.2441 21.3807 23.2317 21.3078C22.9069 21.3078 22.5846 21.3078 22.2623 21.3078C22.0484 21.3059 21.8439 21.2196 21.6929 21.0676C21.5419 20.9156 21.4565 20.7101 21.4552 20.4955V18.7517C21.4559 18.5368 21.541 18.331 21.6922 18.1788C21.8433 18.0267 22.0482 17.9406 22.2623 17.9393H23.7309L23.7673 17.9758V18.0026C23.7608 18.1492 23.7714 18.2961 23.7988 18.4403C23.8181 18.5412 23.8499 18.6392 23.8933 18.7322L23.9054 18.7541L23.886 18.8003L23.4377 18.99L23.394 18.973V18.9535C23.3506 18.8708 23.3164 18.7836 23.2923 18.6933C23.2583 18.6228 23.2414 18.5498 23.2292 18.4768L23.2268 18.4744ZM12.8712 18.4403H12.2386V19.5056H13.5013L13.5352 19.5397V20.0018L13.5013 20.0358H12.2411V21.281L12.2071 21.3151H11.0487C11.0366 21.3564 11.0245 21.4075 11.0148 21.444C11.0051 21.4805 10.993 21.5218 10.9808 21.5607C10.9546 21.6386 10.9221 21.7142 10.8839 21.7869V21.8088L10.8403 21.8234L10.3895 21.641L10.3725 21.5924V21.5705C10.4798 21.3505 10.5385 21.1099 10.5446 20.8652V20.8433L10.581 20.8092H11.6715V20.0358H10.4186L10.3847 20.0018V19.5397L10.4186 19.5056H11.6594V18.4403H11.0293C11.017 18.5159 11 18.5906 10.9784 18.6641C10.9538 18.7527 10.9197 18.8383 10.8766 18.9195V18.9389L10.8354 18.956L10.3847 18.7711L10.3677 18.7249V18.7006C10.4136 18.6118 10.4463 18.5168 10.4646 18.4185C10.484 18.3175 10.4938 18.2149 10.4937 18.112C10.4937 18.0755 10.4937 18.039 10.4937 18.005V17.9782L10.5276 17.9418H13.3777L13.4116 17.9782V18.005C13.4116 18.039 13.4116 18.0755 13.4116 18.112C13.4116 18.2149 13.4213 18.3175 13.4407 18.4185C13.4593 18.5164 13.4911 18.6113 13.5352 18.7006L13.5473 18.7249L13.5304 18.7711L13.0796 18.956L13.0384 18.9389L13.0263 18.9195C12.9851 18.8377 12.9518 18.7522 12.9269 18.6641C12.9037 18.5907 12.8851 18.516 12.8712 18.4403Z" fill="#00582D"/>
</svg>
